<svg aria-hidden="true" style="position:absolute;width:0;height:0;overflow:hidden" xmlns="http://www.w3.org/2000/svg">
  <defs>
    <symbol id="logo" viewBox="0 0 346 32">
      <path d="M29.082.314h-4.01c-1.237 0-2.24.983-2.24 2.195v3.929c0 1.212 1.003 2.195 2.24 2.195h4.01c1.237 0 2.24-.983 2.24-2.195V2.509c0-1.212-1.003-2.195-2.24-2.195zM6.73 23.04H2.412C1.08 23.04 0 24.023 0 25.235v3.929c0 1.212 1.08 2.195 2.412 2.195H6.73c1.332 0 2.412-.983 2.412-2.195v-3.929c0-1.212-1.08-2.195-2.412-2.195zM6.25 11.582H2.241c-1.237 0-2.24.983-2.24 2.195v3.929c0 1.212 1.003 2.195 2.24 2.195H6.25c1.237 0 2.24-.983 2.24-2.195v-3.929c0-1.212-1.003-2.195-2.24-2.195zM17.766 22.978h-4.009c-1.237 0-2.24.983-2.24 2.195v3.929c0 1.212 1.003 2.196 2.241 2.196h4.009c1.237 0 2.24-.983 2.24-2.196v-3.929c0-1.212-1.003-2.195-2.24-2.195zM6.25.086H2.241c-1.237 0-2.24.983-2.24 2.195V6.21c0 1.212 1.003 2.195 2.24 2.195H6.25c1.237 0 2.24-.983 2.24-2.195V2.281C8.49 1.069 7.487.086 6.25.086zM18.076 11.697h-4.009c-1.237 0-2.24.983-2.24 2.195v3.929c0 1.212 1.003 2.195 2.24 2.195h4.009c1.237 0 2.24-.983 2.24-2.195v-3.929c0-1.212-1.003-2.195-2.24-2.195zM29.333 22.978h-4.009c-1.237 0-2.24.983-2.24 2.195v3.929c0 1.212 1.003 2.196 2.24 2.196h4.009c1.237 0 2.24-.983 2.24-2.196v-3.929c0-1.212-1.003-2.195-2.24-2.195zM17.591.224h-4.009c-1.237 0-2.24.983-2.24 2.195v3.929c0 1.212 1.003 2.195 2.24 2.195h4.009c1.237 0 2.24-.984 2.24-2.196V2.418c0-1.212-1.003-2.195-2.24-2.195zM29.044 11.926h-4.009c-1.237 0-2.24.983-2.24 2.195v3.929c0 1.212 1.003 2.195 2.24 2.195h4.009c1.237 0 2.24-.983 2.24-2.195v-3.929c0-1.212-1.003-2.195-2.24-2.195zM59.112 30.223c-7.748 0-12.89-5.227-12.89-13.369 0-7.965 5.068-13.298 12.706-13.298 6.427 0 10.943 3.662 11.604 9.173h-5.325c-.514-3.164-2.975-4.942-6.28-4.942-4.627 0-7.381 3.627-7.381 9.067 0 5.973 3.085 9.138 7.565 9.138 3.893 0 6.39-2.133 6.647-5.333v-.356h-7.161v-3.982h12.118v3.271c-.22 6.364-4.847 10.631-11.604 10.631zM73.927 29.867V3.911h12.89c6.573 0 9.181 3.093 9.181 7.573 0 4.018-2.938 5.938-6.353 6.4v.107c2.203.533 3.195 1.707 4.113 4.018 1.175 2.916 1.359 6.4 2.864 7.644v.213h-5.876c-1.248-1.209-1.542-5.013-2.203-7.324-.661-2.382-2.093-2.667-4.774-2.667h-4.7v9.991h-5.141zm5.141-14.115h7.198c3.011 0 4.407-1.707 4.407-3.911 0-2.418-1.726-3.804-4.407-3.804h-7.198v7.716zM99.412 29.867V3.911h18.325v4.124h-13.183v6.187h11.898v4.124h-11.898v7.289h13.367v4.231H99.413zM121.49 29.867V3.911h18.325v4.124h-13.184v6.187h11.898v4.124h-11.898v7.289h13.367v4.231H121.49zM143.568 29.867V3.911h6.243l8.887 14.329c2.717 4.338 3.048 5.76 3.048 5.76h.11l-.074-20.089h5.141v25.956h-6.28l-9.217-14.756c-2.093-3.342-2.644-5.369-2.644-5.369h-.073v20.124h-5.141zM170.79 29.867v-5.262h5.362v5.262h-5.362zM180.014 29.867V3.911h5.141v10.382h12.302V3.911h5.141v25.956h-5.141V18.418h-12.302v11.449h-5.141zM204.795 29.867l10.283-25.956h5.581l10.43 25.956h-5.509l-2.166-5.973h-11.128l-2.166 5.973h-5.325zm8.96-10.097h8.19l-2.387-6.4c-1.653-4.729-1.69-5.582-1.69-5.582h-.074s0 .853-1.653 5.582l-2.387 6.4zM233.278 29.867V3.911h12.89c6.574 0 9.181 3.093 9.181 7.573 0 4.018-2.938 5.938-6.354 6.4v.107c2.205.533 3.195 1.707 4.114 4.018 1.176 2.916 1.358 6.4 2.864 7.644v.213h-5.875c-1.248-1.209-1.542-5.013-2.203-7.324-.661-2.382-2.093-2.667-4.774-2.667h-4.701v9.991h-5.141zm5.141-14.115h7.198c3.011 0 4.406-1.707 4.406-3.911 0-2.418-1.726-3.804-4.406-3.804h-7.198v7.716zM264.214 29.867l-9.842-25.956h5.509s5.325 14.542 5.875 16.32c.882 2.844 1.285 4.302 1.285 4.302h.074c-.037 0 .368-1.458 1.285-4.302.589-1.778 5.693-16.32 5.693-16.32h5.325l-9.475 25.956h-5.728zM281.523 29.867V3.911h18.325v4.124h-13.184v6.187h11.898v4.124h-11.898v7.289h13.368v4.231h-18.509zM312.795 30.223c-6.83 0-10.944-3.591-10.944-8.924h5.875c-.074 3.022 1.984 4.693 5.069 4.693 3.267 0 4.81-1.244 4.81-3.093s-1.322-2.631-6.022-3.876c-4.296-1.138-8.997-2.489-8.997-7.822 0-4.231 3.819-7.644 9.842-7.644 6.206 0 10.173 3.378 10.173 8.142h-5.693c-.037-2.524-1.798-3.911-4.48-3.911-2.606 0-4.333 1.28-4.333 2.987 0 2.027 1.432 2.667 5.178 3.698 5.546 1.493 10.026 2.098 10.026 7.893 0 4.658-4.37 7.858-10.502 7.858zM331.669 29.867V8.143h-8.115V3.912h21.336v4.231h-8.08v21.724h-5.141z"/>
    </symbol>
    <symbol id="burger" viewBox="0 0 32 32">
      <path stroke-linejoin="round" stroke-linecap="round" stroke-width="3.2" d="M5.333 8h21.333M5.333 16H16M5.333 24h21.333"/>
    </symbol>
    <symbol id="close" viewBox="0 0 32 32">
      <path stroke-linejoin="round" stroke-linecap="round" stroke-width="3.2" d="M24 8 8 24M8 8l16 16"/>
    </symbol>
    <symbol id="logo-icon" viewBox="0 0 32 32">
      <path d="M29.082.314h-4.01c-1.237 0-2.24.983-2.24 2.195v3.929c0 1.212 1.003 2.195 2.24 2.195h4.01c1.237 0 2.24-.983 2.24-2.195V2.509c0-1.212-1.003-2.195-2.24-2.195zM6.73 23.04H2.412C1.08 23.04 0 24.023 0 25.235v3.929c0 1.212 1.08 2.195 2.412 2.195H6.73c1.332 0 2.412-.983 2.412-2.195v-3.929c0-1.212-1.08-2.195-2.412-2.195zM6.25 11.582H2.241c-1.237 0-2.24.983-2.24 2.195v3.929c0 1.212 1.003 2.195 2.24 2.195H6.25c1.237 0 2.24-.983 2.24-2.195v-3.929c0-1.212-1.003-2.195-2.24-2.195zM17.766 22.978h-4.009c-1.237 0-2.24.983-2.24 2.195v3.929c0 1.212 1.003 2.196 2.241 2.196h4.009c1.237 0 2.24-.983 2.24-2.196v-3.929c0-1.212-1.003-2.195-2.24-2.195zM6.25.086H2.241c-1.237 0-2.24.983-2.24 2.195V6.21c0 1.212 1.003 2.195 2.24 2.195H6.25c1.237 0 2.24-.983 2.24-2.195V2.281C8.49 1.069 7.487.086 6.25.086zM18.076 11.697h-4.009c-1.237 0-2.24.983-2.24 2.195v3.929c0 1.212 1.003 2.195 2.24 2.195h4.009c1.237 0 2.24-.983 2.24-2.195v-3.929c0-1.212-1.003-2.195-2.24-2.195zM29.333 22.978h-4.009c-1.237 0-2.24.983-2.24 2.195v3.929c0 1.212 1.003 2.196 2.24 2.196h4.009c1.237 0 2.24-.983 2.24-2.196v-3.929c0-1.212-1.003-2.195-2.24-2.195zM17.591.224h-4.009c-1.237 0-2.24.983-2.24 2.195v3.929c0 1.212 1.003 2.195 2.24 2.195h4.009c1.237 0 2.24-.984 2.24-2.196V2.418c0-1.212-1.003-2.195-2.24-2.195zM29.044 11.926h-4.009c-1.237 0-2.24.983-2.24 2.195v3.929c0 1.212 1.003 2.195 2.24 2.195h4.009c1.237 0 2.24-.983 2.24-2.195v-3.929c0-1.212-1.003-2.195-2.24-2.195z"/>
    </symbol>
    <symbol id="logo-text" viewBox="0 0 354 32">
      <path d="M16.838 31.792c-9.116 0-15.164-6.149-15.164-15.728C1.674 6.694 7.636.42 16.622.42c7.561 0 12.874 4.309 13.652 10.792H24.01c-.605-3.723-3.499-5.814-7.388-5.814-5.444 0-8.684 4.267-8.684 10.667 0 7.027 3.629 10.75 8.9 10.75 4.58 0 7.517-2.51 7.82-6.275v-.418h-8.425v-4.685H30.49v3.848c-.259 7.488-5.703 12.507-13.652 12.507zM34.267 31.373V.837h15.164c7.733 0 10.801 3.639 10.801 8.91 0 4.727-3.456 6.986-7.474 7.529v.125c2.592.627 3.759 2.008 4.839 4.727 1.382 3.43 1.599 7.529 3.37 8.993v.251h-6.913c-1.469-1.422-1.815-5.898-2.592-8.617-.778-2.803-2.462-3.137-5.616-3.137h-5.53v11.754h-6.048zm6.048-16.606h8.468c3.543 0 5.184-2.008 5.184-4.601 0-2.844-2.031-4.476-5.184-4.476h-8.468v9.077zM64.249 31.373V.837h21.558v4.852h-15.51v7.278h13.998v4.852H70.297v8.575h15.726v4.978H64.248zM90.223 31.373V.837h21.558v4.852h-15.51v7.278h13.998v4.852H96.271v8.575h15.726v4.978H90.223zM116.198 31.373V.837h7.345l10.455 16.858c3.197 5.103 3.586 6.776 3.586 6.776h.13L137.628.837h6.048v30.536h-7.388l-10.844-17.359c-2.463-3.932-3.111-6.316-3.111-6.316h-.086v23.676h-6.048zM148.225 31.373v-6.191h6.308v6.191h-6.308zM159.075 31.373V.837h6.048v12.214h14.473V.837h6.048v30.536h-6.048V17.904h-14.473v13.469h-6.048zM188.23 31.373 200.327.837h6.566l12.271 30.536h-6.481l-2.549-7.027h-13.092l-2.549 7.027h-6.264zm10.541-11.879h9.636l-2.808-7.529c-1.944-5.563-1.988-6.567-1.988-6.567h-.087s0 1.004-1.944 6.567l-2.808 7.529zM221.739 31.373V.837h15.164c7.735 0 10.801 3.639 10.801 8.91 0 4.727-3.456 6.986-7.475 7.529v.125c2.594.627 3.759 2.008 4.84 4.727 1.384 3.43 1.598 7.529 3.369 8.993v.251h-6.912c-1.468-1.422-1.815-5.898-2.592-8.617-.777-2.803-2.462-3.137-5.617-3.137h-5.53v11.754h-6.048zm6.048-16.606h8.469c3.543 0 5.184-2.008 5.184-4.601 0-2.844-2.031-4.476-5.184-4.476h-8.469v9.077zM258.135 31.373 246.557.837h6.481s6.264 17.108 6.912 19.2c1.037 3.346 1.512 5.061 1.512 5.061h.087c-.043 0 .433-1.715 1.512-5.061.693-2.092 6.697-19.2 6.697-19.2h6.264l-11.147 30.536h-6.739zM278.498 31.373V.837h21.559v4.852h-15.511v7.278h13.997v4.852h-13.997v8.575h15.727v4.978h-21.775zM315.288 31.792c-8.036 0-12.875-4.225-12.875-10.499h6.912c-.087 3.556 2.334 5.522 5.963 5.522 3.844 0 5.658-1.464 5.658-3.639s-1.555-3.095-7.085-4.559c-5.054-1.339-10.584-2.928-10.584-9.203 0-4.978 4.493-8.993 11.578-8.993 7.302 0 11.968 3.974 11.968 9.579h-6.697c-.043-2.97-2.116-4.601-5.271-4.601-3.066 0-5.097 1.506-5.097 3.514 0 2.384 1.685 3.137 6.091 4.35 6.524 1.757 11.795 2.468 11.795 9.286 0 5.48-5.141 9.244-12.356 9.244zM337.493 31.373V5.815h-9.547V.837h25.101v4.978h-9.506v25.558h-6.048z"/>
    </symbol>
  </defs>
</svg>
