<?xml version="1.0" encoding="UTF-8"?>
<!-- Generated by Pixelmator Pro 3.6.15 -->
<svg width="128" height="128" viewBox="0 0 128 128" xmlns="http://www.w3.org/2000/svg">
    <path id="---" fill="#576f35" fill-rule="evenodd" stroke="none" d="M 0 114 C -0 121.731987 6.268013 128 14 128 L 114 128 C 121.731987 128 128 121.731987 128 114 L 128 14 C 128 6.268013 121.731987 0 114 0 L 14 0 C 6.268013 0 0 6.268013 0 14 Z"/>
    <g id="Vector">
        <path id="path1" fill="#fbfbfb" stroke="none" d="M 110.241386 9.518814 L 96.145256 9.518814 C 91.796043 9.518814 88.270325 12.974106 88.270325 17.236664 L 88.270325 31.05043 C 88.270325 35.313011 91.796043 38.768539 96.145256 38.768539 L 110.241386 38.768539 C 114.590607 38.768539 118.116882 35.313011 118.116882 31.05043 L 118.116882 17.236664 C 118.116882 12.974106 114.590607 9.518814 110.241386 9.518814 Z"/>
        <path id="path2" fill="#fbfbfb" stroke="none" d="M 31.661306 89.414764 L 16.481304 89.414764 C 11.797186 89.414764 8 92.870178 8 97.132767 L 8 110.946518 C 8 115.209114 11.797186 118.66452 16.481304 118.66452 L 31.661306 118.66452 C 36.345371 118.66452 40.142612 115.209114 40.142612 110.946518 L 40.142612 97.132767 C 40.142612 92.870178 36.345371 89.414764 31.661306 89.414764 Z"/>
        <path id="path3" fill="#fbfbfb" stroke="none" d="M 29.971064 49.132454 L 15.875383 49.132454 C 11.526041 49.132454 8 52.587753 8 56.850334 L 8 70.663986 C 8 74.926575 11.52684 78.381981 15.876171 78.381981 L 29.971064 78.381981 C 34.320671 78.381981 37.846672 74.926575 37.846672 70.663986 L 37.846672 56.850334 C 37.846672 52.587753 34.320671 49.132454 29.971064 49.132454 Z"/>
        <path id="path4" fill="#fbfbfb" stroke="none" d="M 70.457787 89.197639 L 56.362049 89.197639 C 52.012726 89.197639 48.486664 92.652489 48.486664 96.915077 L 48.485878 110.728836 C 48.485878 114.991425 52.013512 118.447395 56.362896 118.447395 L 70.457787 118.447395 C 74.807564 118.447395 78.333282 114.991425 78.333282 110.728836 L 78.333282 96.915077 C 78.333282 92.652489 74.807564 89.197639 70.457787 89.197639 Z"/>
        <path id="path5" fill="#fbfbfb" stroke="none" d="M 29.971064 8.71875 L 15.875383 8.71875 C 11.526041 8.71875 8 12.174042 8 16.43663 L 8 30.250389 C 8 34.512978 11.52684 37.968498 15.876171 37.968498 L 29.971064 37.968498 C 34.320671 37.968498 37.846672 34.512978 37.846672 30.250389 L 37.846672 16.43663 C 37.846672 12.174042 34.320671 8.71875 29.971064 8.71875 Z"/>
        <path id="path6" fill="#fbfbfb" stroke="none" d="M 71.54734 49.539024 L 57.451824 49.539024 C 53.102444 49.539024 49.576443 52.994316 49.576443 57.256912 L 49.576443 71.070663 C 49.576443 75.33326 53.103287 78.788666 57.452614 78.788666 L 71.54734 78.788666 C 75.897118 78.788666 79.422836 75.33326 79.422836 71.070663 L 79.422836 57.256912 C 79.422836 52.994316 75.897118 49.539024 71.54734 49.539024 Z"/>
        <path id="path7" fill="#fbfbfb" stroke="none" d="M 111.12394 89.197639 L 97.028374 89.197639 C 92.679161 89.197639 89.152878 92.652489 89.152878 96.915077 L 89.152878 110.728836 C 89.152878 114.991425 92.679726 118.447395 97.029495 118.447395 L 111.12394 118.447395 C 115.473717 118.447395 119 114.991425 119 110.728836 L 119 96.915077 C 119 92.652489 115.473717 89.197639 111.12394 89.197639 Z"/>
        <path id="path8" fill="#fbfbfb" stroke="none" d="M 69.841286 9.201904 L 55.745724 9.201904 C 51.396397 9.201904 47.870338 12.657196 47.870338 16.919815 L 47.870338 30.733513 C 47.870338 34.996109 51.397182 38.451683 55.746513 38.451683 L 69.841286 38.451683 C 74.191063 38.451683 77.716789 34.993576 77.716789 30.73098 L 77.716789 16.919815 C 77.716789 12.657196 74.191063 9.201904 69.841286 9.201904 Z"/>
        <path id="path9" fill="#fbfbfb" stroke="none" d="M 110.105827 50.34182 L 96.010262 50.34182 C 91.661049 50.34182 88.134758 53.797112 88.134758 58.0597 L 88.134758 71.873352 C 88.134758 76.135941 91.661606 79.591347 96.011383 79.591347 L 110.105827 79.591347 C 114.455605 79.591347 117.981888 76.135941 117.981888 71.873352 L 117.981888 58.0597 C 117.981888 53.797112 114.455605 50.34182 110.105827 50.34182 Z"/>
    </g>
</svg>
